<?xml version="1.0" encoding="utf-8" ?><svg xmlns="http://www.w3.org/2000/svg" xmlns:xlink="http://www.w3.org/1999/xlink" width="1024" height="1024" viewBox="0 0 1024 1024"><path fill="#C62828" d="M519.031 283.203C530.504 281.763 547.363 284.794 558.228 288.256C576.033 293.929 592.832 306.801 604.16 321.551C620.37 342.652 627.323 369.428 623.427 395.75C619.714 422.461 605.228 445.051 583.8 461.258C556.656 481.789 520.6 485.08 489.159 473.058C471.084 466.147 455.013 452.249 443.587 436.714C453.635 431.46 459.204 426.898 468.479 421.061C488.034 445.582 510.245 454.64 541.524 449.196C558.851 444.598 572.102 436.584 582.683 421.712C593.67 406.544 598.017 387.559 594.724 369.122C591.433 351.085 581.179 335.067 566.177 324.527C550.955 313.774 532.038 309.619 513.711 313.003C495.282 316.362 478.992 327.026 468.542 342.572C457.099 359.407 454.404 377.765 458.24 397.421C451.032 400.375 438.304 403.731 430.689 405.892C429.127 401.011 428.039 394.845 427.612 389.75C425.427 364.296 433.382 339.009 449.746 319.391C467.988 297.837 490.902 285.461 519.031 283.203Z"/><path fill="#EDEBE7" d="M659.433 351.893L660.391 352.193C663.487 356.973 664.214 380.826 663.999 387.098C662.66 423.236 646.92 457.337 620.289 481.802C594.02 506.702 558.759 519.856 522.6 518.247C480.102 516.773 447.688 498.447 419.337 468.002C416.293 463.199 412.93 460.88 409.25 454.092C419.604 450.52 427.984 446.115 437.722 441.287C446.371 452.007 452.201 459.092 463.777 467.52C487.182 484.543 516.451 491.432 544.991 486.634C572.777 481.862 597.58 466.376 614.067 443.506C629.923 421.094 636.909 391.759 632.355 364.645C641.507 360.667 650.537 356.415 659.433 351.893Z"/><path fill="#EDEBE7" d="M515.44 245.215C531.818 244.512 543.532 244.897 559.636 248.584C575.596 252.195 590.818 258.516 604.641 267.272C607.078 268.798 610.551 270.706 612.033 273.067C611.071 275.513 590.88 290.523 587.464 293.11C583.858 290.025 577.307 286.676 573.01 284.743C546.021 272.458 515.205 271.641 487.603 282.479C461.057 292.749 439.612 314.478 428.147 340.375C418.672 362.685 415.862 384.82 421.256 408.64C415.213 410.44 409.013 411.663 402.738 412.293C399.126 412.692 395.4 412.762 391.881 413.525C390.84 408.156 389.925 402.924 389.382 397.471C381.816 321.423 438.375 251.803 515.44 245.215Z"/><path fill="#F26A5B" d="M522.981 319.704C525.094 319.523 527.622 319.57 529.753 319.686C546.177 320.613 561.536 328.113 572.368 340.493C609.116 382.546 575.939 449.523 519.743 443.428C498.219 441.093 487.738 432.833 474.177 416.808C479.31 412.372 490.214 405.323 496.43 400.431C501.11 407.043 504.74 410.515 512.325 413.683C534.422 422.483 558.264 408.147 560.626 384.432C561.606 375.37 558.836 366.301 552.96 359.333C537.988 341.499 507.641 342.121 496.04 363.284C492.61 369.542 491.448 374.469 490.979 381.571C483.748 385.795 472.557 390.827 464.867 394.37C464.572 392.341 464.346 390.304 464.191 388.26C461.472 350.943 485.429 322.243 522.981 319.704Z"/><path fill="#1F5A52" d="M431.471 275.05L431.697 275.269C431.184 277.246 419.518 285.567 416.995 287.787C385.386 315.598 341.68 352.436 334.56 396.398C333.292 403.527 334.567 415.454 339.832 420.791C359.648 440.874 401.491 429.676 424.479 421.405C445.675 413.778 463.247 403.768 482.792 393.444C486.65 391.406 506.991 377.926 508.155 378.038C499.405 385.611 490.348 392.653 481.267 399.819C479.063 401.548 476.841 403.253 474.6 404.934C438.105 432.247 390.093 463.151 342.178 456.37C331.553 454.866 321.456 450.617 315.036 441.716C309.145 433.55 307.964 420.842 310.044 411.305C321.533 358.622 389.273 304.322 431.471 275.05Z"/><path fill="#EDEBE7" d="M755.372 549.656C761.966 549.118 769.816 549.773 776.573 549.852C797.497 550.099 817.008 545.215 821.78 572.114C816.426 572.195 810.887 572.706 805.686 571.843C805.107 570.859 804.544 569.753 803.743 568.932C800.854 565.971 760.971 566.947 754.391 567.054C752.913 567.078 751.529 567.304 750.571 568.559C749.833 569.527 749.475 570.793 749.738 571.993C750.097 573.632 751.28 574.568 752.834 575.013C755.773 575.854 760.348 575.251 763.464 575.239C775.052 575.195 804.049 573.055 813.587 578.805C817.962 581.443 821.224 585.73 822.246 590.772C823.268 595.819 822.04 601.647 819.102 605.873C815.075 611.663 808.78 613.991 802.105 615.034L772.996 615.129C755.498 615.171 736.76 616.264 733.684 593.242C738.849 593.208 744.015 593.255 749.179 593.383C750.189 594.769 751.348 596.11 752.45 597.432C754.422 597.619 756.399 597.755 758.378 597.841C772.897 598.499 788.613 597.593 803.22 597.814C804.377 597.831 805.597 597.424 806.463 596.634C810.361 588.754 797.38 591.059 793.429 590.803C781.713 590.042 766.697 592.257 755.248 590.531C751.26 589.953 747.437 588.552 744.021 586.418C734.11 580.308 730.632 568.995 737.752 559.194C742.417 552.771 747.906 550.941 755.372 549.656Z"/><path fill="#EDEBE7" d="M663.918 549.743L693.307 549.822C712.847 549.849 724.128 549.01 729.036 571.937C723.828 571.726 718.213 571.744 712.97 571.671L710.79 567.035C695.598 566.53 680.242 567.411 665.048 566.588C661.048 566.371 655.636 567.262 655.576 572.278C656.132 573.599 656.901 574.844 658.467 575.003C670.358 576.213 682.973 575.201 694.913 575.481C700.992 575.624 707.27 574.942 712.914 576.324C716.505 577.211 719.813 578.995 722.527 581.509C733.188 591.428 729.868 608.254 716.331 613.464C712.515 614.932 710.335 614.966 706.374 615.003C694.196 615.07 664.045 616.859 654.389 612.754C648.956 610.444 644.04 606.315 641.814 600.739C640.936 598.541 640.281 596.548 641.227 594.34C644.156 592.306 651.138 593.363 655.004 593.595L659.247 598.009L694.446 597.992C699.241 597.997 704.001 598.112 708.791 598.178C711.44 598.214 713.237 596.918 713.758 594.354C712.456 589.292 705.447 590.561 701.111 590.586L679.903 590.734C665.745 590.81 642.364 592.012 640.432 572.553C638.942 557.556 650.69 550.621 663.918 549.743Z"/><path fill="#EDEBE7" d="M246.301 637.617C246.657 637.588 247.014 637.564 247.371 637.544C259.534 636.945 272.168 637.532 284.364 637.27C289.917 637.15 296.544 637.171 301.922 638.476C306.63 639.577 310.976 641.872 314.541 645.139C331.313 660.529 328.034 690.396 307.523 700.721C297.789 705.621 288.686 704.097 278.131 704.074C263.659 703.963 249.186 704.013 234.715 704.225C234.832 700.067 234.91 695.909 234.947 691.75L234.927 665.551C240.598 665.718 247.255 665.523 252.996 665.493C252.944 672.345 252.946 679.198 253.002 686.05C266.09 685.871 280.525 686.716 293.599 685.779C301.773 685.194 306.726 677.462 306.952 669.344C307.052 665.369 305.529 661.526 302.735 658.698C298.01 653.928 281.413 655.498 274.739 655.521L234.525 655.507C234.199 646.083 236.956 640.727 246.301 637.617Z"/><path fill="#EDEBE7" d="M715.262 637.164C726.561 637.145 760.136 635.689 768.828 638.75C774.819 640.859 779.958 645.359 782.621 651.15C785.463 657.328 785.401 664.986 783.042 671.334C780.462 678.28 775.366 681.486 769.007 684.45C773.595 690.95 778.294 697.496 782.358 704.33C777.289 703.906 768.664 704.213 763.376 704.292C759.164 699.562 753.442 691.597 749.449 686.373C742.481 685.621 728.667 686.081 721.526 686.411C720.433 687.801 720.973 701.697 720.999 704.439C715.037 703.925 709.041 703.945 703.083 704.498C702.878 692.501 703.028 680.133 703.034 668.097C716.105 667.982 729.177 667.973 742.248 668.071C748.685 668.09 755.277 668.096 761.684 668.063C768.633 668.028 770.967 658.345 762.968 656.169C752.933 653.439 710.218 657.928 703.761 654.72C702.324 652.017 704.296 645.651 705.896 643.254C708.238 639.746 711.156 637.988 715.262 637.164Z"/><path fill="#EDEBE7" d="M481.874 550.115C487.054 549.45 500.035 549.881 505.855 549.904C513.288 549.933 523.691 549.449 530.774 549.87C533.141 549.992 535.483 550.407 537.747 551.107C550.852 555.257 556.887 568.586 552.562 581.594C550.209 588.67 543.837 592.346 537.347 595.235C541.286 601.866 546.751 608.378 550.943 615.399C546.314 614.805 535.676 615.162 530.498 615.182C526.606 609.973 522.011 602.736 518.275 597.226C509.569 596.97 500.657 597.078 491.933 597.115C490.648 597.164 490.961 597.128 489.742 597.437C488.46 600.089 489.089 611.089 489.108 614.931C483.349 614.835 477.412 614.894 471.638 614.88C472.195 603.417 471.977 590.88 471.989 579.33L510.89 579.454C517.42 579.478 524.882 579.797 531.378 579.022C537.656 578.273 538.821 567.619 531.18 567.177C524.202 566.773 517.267 566.924 510.254 566.926L471.705 566.919C472.009 558.079 473.631 554.264 481.874 550.115Z"/><path fill="#EDEBE7" d="M392.371 550.183C401.085 549.379 411.226 549.847 420.073 549.814C438.134 549.746 463.817 545.983 464.935 571.777C465.175 578.653 462.591 585.329 457.782 590.249C449.285 598.854 438.672 597.141 427.616 597.111C418.25 597.016 408.883 597.061 399.518 597.245L399.516 615.311C396.584 615.042 392.181 615.158 389.122 615.154C386.443 615.076 384.643 615.243 382.01 615.476C381.803 603.144 381.973 591.76 381.898 579.498C384.718 579.706 387.521 579.718 390.346 579.651C408.135 579.227 426.006 579.847 443.783 579.43C448.707 575.11 451.069 569.227 442.995 567.326C438.241 566.207 430.075 566.785 425.056 566.796L393.86 566.896C391.038 566.911 384.552 567.265 382.237 566.529C381.187 564.131 382.408 561.445 383.294 558.971C385.078 553.992 387.862 552.211 392.371 550.183Z"/><path fill="#1F5A52" d="M280.389 549.478C289.297 549.687 298.805 549.39 307.633 550.04C313.677 554.827 324.03 565.307 329.981 571.075C337.262 563.877 344.725 556.864 352.361 550.044C360.119 549.592 369.853 549.934 377.768 550.039L343.04 581.441C350.127 588.781 358.127 595.902 365.464 602.988C368.574 605.991 375.774 612.35 377.874 615.608C376.24 615.981 374.105 615.893 372.375 615.9C366.426 615.946 359.987 616.14 354.086 615.735L353.967 615.649C349.729 612.646 334.744 597.828 330.089 593.41C323.071 600.168 312.487 610.281 304.701 615.79C297.313 616.184 287.921 616.005 280.507 615.653C283.588 611.755 290.627 605.72 294.455 602.256L317.716 581.249C313.011 576.782 306.618 571.942 301.603 567.561C294.753 561.577 287.654 554.825 280.389 549.478Z"/><path fill="#EDEBE7" d="M515.503 637.014C522.317 637.168 529.404 637.105 536.241 637.141C546.151 653.201 558.412 669.616 567.823 685.926C576.18 672.641 589.665 649.104 598.541 637.471C605.411 637.394 612.282 637.411 619.152 637.522C616.71 641.091 614.256 645.073 611.903 648.733C601.035 666.99 589.278 686.517 578.115 704.536C571.575 704.194 565.025 704.087 558.478 704.216C551.847 694.198 545.303 684.124 538.847 673.993C530.618 661.348 523.06 650.078 515.503 637.014Z"/><path fill="#EDEBE7" d="M623.42 663.239C646.272 663.117 669.124 663.118 691.976 663.243C692.036 670.684 691.91 673.757 686.133 678.97C673.235 679.972 652.284 679.173 638.501 679.136L638.524 686.846C646.806 686.605 655.091 686.535 663.375 686.634L698.132 686.554C698.219 688.132 698.215 689.714 698.12 691.292C697.754 697.112 695.532 700.495 691.424 704.226C669.534 704.109 643.165 703.522 621.492 704.541C621.598 699.357 621.316 665.815 622.019 663.563L623.42 663.239Z"/><path fill="#EDEBE7" d="M330.179 663.453C352.57 663.035 378.214 663.173 400.575 663.448C400.689 671.168 399.93 679.435 390.327 679.294C376.528 679.093 360.515 679.95 346.915 679.038L346.946 686.496C354.619 686.45 362.438 686.574 370.124 686.618L406.067 686.501C405.951 692.719 405.294 703.786 397.047 703.893C374.935 704.179 352.504 704.52 330.406 704.497C329.481 694.854 330.136 674.031 330.179 663.453Z"/><path fill="#EDEBE7" d="M560.952 575.028C584.507 575.15 608.062 575.151 631.617 575.029C631.326 582.988 631.381 585.703 625.138 590.811C612.404 591.727 590.866 591.024 577.497 590.993C577.536 593.497 577.553 596.001 577.546 598.505C584.793 598.259 592.817 598.381 600.125 598.338C612.325 598.663 624.991 598.204 637.119 598.812C637.061 605.691 636.154 613.588 627.536 614.625C619.808 615.555 611.244 615.134 603.38 615.118L560.99 615.114L560.952 575.028Z"/><path fill="#C62828" d="M236.842 575.244C246.021 575.187 262.163 574.708 270.665 575.599C270.591 583.155 270.712 590.145 261.102 590.859C256.082 591.232 251.09 591.067 246.059 591.058L218.288 590.977C218.179 593.423 218.165 596.066 218.11 598.529C237.366 598.418 256.622 598.485 275.876 598.731C279.772 605.063 273.212 612.356 267.932 615.457C246.108 615.596 224.283 615.616 202.459 615.517C201.801 607.792 202.061 583.543 202.409 575.493C213.888 575.566 225.366 575.483 236.842 575.244Z"/><path fill="#EDEBE7" d="M421.627 637.586C424.095 637.479 426.799 637.543 429.289 637.547C428.886 652.795 429.066 671.131 429.354 686.341C445.25 685.649 467.36 686.051 483.441 686.247C483.756 694.926 483.267 700.805 474.278 704.213L436.009 704.051C428.39 704.039 418.56 703.785 411.119 704.553C410.872 696.572 410.19 650.256 412.494 645.193C414.246 641.343 417.852 639.113 421.627 637.586Z"/><path fill="#EDEBE7" d="M405.57 637.037C405.701 641.386 405.554 645.423 405.411 649.759C403.629 652.886 402.952 653.597 400.113 655.844L393.25 655.984L330.524 655.975C330.159 645.832 331.658 639.29 342.835 637.24C363.27 636.744 384.932 637.233 405.57 637.037Z"/><path fill="#EDEBE7" d="M633.17 637.142C652.124 636.863 679.127 636.44 697.594 637.471C697.523 642.212 697.575 646.585 696.789 651.277C696.316 651.862 695.826 652.434 695.322 652.992C692.753 655.785 690.696 655.809 687.125 655.902L621.568 655.68C621.355 646.626 623.574 639.49 633.17 637.142Z"/><path fill="#EDEBE7" d="M573.507 549.692C592.512 548.867 616.204 549.896 635.984 549.606C636.074 560.249 637.556 567.676 624.624 568.332L561.06 568.021C560.947 559.024 563.959 551.709 573.507 549.692Z"/><path fill="#C62828" d="M213.201 549.573C219.903 549.161 229.353 549.416 236.214 549.429L276.208 549.538C276.367 557.856 277.741 567.87 266.625 567.986C245.6 567.997 222.802 568.418 201.93 567.867C202.442 559.322 205.233 553.398 213.201 549.573Z"/><path fill="#EDEBE7" d="M501.169 637.665L508.981 637.437L508.784 704.278C506.007 704.101 502.233 704.188 499.375 704.174L490.864 703.995C491.633 685.664 490.293 666.828 491.162 648.464C491.455 642.292 495.452 638.907 501.169 637.665Z"/><path fill="#F26A5B" d="M397.046 318.941L397.297 319.184C397.303 319.396 397.31 319.609 397.316 319.821C390.696 327.664 382.661 337.393 377.018 345.714C367.362 359.952 358.29 375.879 361.612 393.539C362.948 400.642 366.249 406.2 372.319 410.14C382.564 416.79 401.786 417.71 413.401 415.74C419.699 414.672 427.883 412.01 434.681 410.614C429.972 413.147 425.809 414.639 420.851 416.534C403.47 422.495 372.958 430.033 356.925 416.727C352.807 413.309 349.517 406.162 349.692 400.795C350.667 370.938 377.783 339.852 397.046 318.941Z"/><path fill="#F26A5B" d="M656.559 248.296C657.724 251.198 657.494 257.452 657.864 260.802C659.454 275.21 668.971 282.215 682.707 283.413C685.784 283.681 689.927 283.73 692.883 284.729C691.112 285.153 687.693 284.918 685.716 285.075C661.115 287.032 658.569 297.576 657 318.543C656.026 318.459 655.93 313.138 655.873 312.232C654.338 287.804 640.774 285.466 619.97 284.85C650.95 280.822 653.419 279.181 656.559 248.296Z"/><path fill="#010101" d="M525.489 370.782C531.814 369.161 538.268 372.924 539.973 379.227C541.679 385.53 538.002 392.034 531.722 393.823C527.585 395.002 523.133 393.863 520.07 390.842C517.007 387.821 515.807 383.385 516.929 379.232C518.051 375.078 521.321 371.85 525.489 370.782Z"/><path fill="#EDEBE7" d="M498.56 728.567C511.921 727.744 515.776 741.319 504.316 745.935C494.453 747.51 491.75 743.234 492.068 734.27C494.197 730.628 494.687 730.312 498.56 728.567ZM502.271 742.791C504.246 742.4 505.856 740.973 506.481 739.06C507.107 737.146 506.651 735.044 505.288 733.561C503.926 732.079 501.869 731.448 499.91 731.91C496.955 732.608 495.104 735.544 495.748 738.51C496.391 741.477 499.293 743.381 502.271 742.791Z"/><path fill="#EDEBE7" d="M258.036 728.214C264.536 728.361 263.907 730.603 267.428 735.371C269.155 732.28 269.93 730.536 272.831 728.587C274.576 728.332 273.806 728.14 275.223 729.152C276.687 732.296 276.737 742.26 276.004 745.467C274.673 746.059 274.569 745.876 273.072 745.656C271.953 744.374 272.235 743.088 272.079 741.064L272.038 734.815C270.235 737.185 268.23 741.351 265.223 740.686C263.536 739.315 262.998 737.807 262.003 735.856C262.087 739.159 262.784 743.937 260.801 746.271C259.157 746.253 259.987 746.412 258.343 745.267C257.638 741.675 257.998 732.403 258.036 728.214Z"/><path fill="#EDEBE7" d="M687.943 728.624C696.917 728.32 709.522 728.375 699.433 739.792C698.659 740.668 702.246 743.184 702.334 745.662L701.302 746.465C695.08 745.378 697.336 739.894 692.045 740.708C690.627 743.919 692.592 742.817 691.43 745.469C689.937 745.995 689.992 745.906 688.39 745.729L687.83 744.799C688.185 739.629 687.995 733.85 687.943 728.624Z"/><path fill="#EDEBE7" d="M605.951 728.557C610.688 728.582 619.559 727.587 621.171 733.199C620.701 735.979 619.148 737.637 617.452 739.971C617.703 741.88 619.343 743.07 620.776 745.299L620.286 746.231C612.984 745.67 616.203 740.815 610.42 740.777L609.873 741.602C610.072 743.118 610.322 743.884 609.773 745.312C608.119 746.033 607.257 745.909 606.004 744.747L605.951 728.557Z"/><path fill="#EDEBE7" d="M308.874 728.534C309.925 728.693 312.906 728.866 314.004 728.801C322.007 728.324 329.156 733.707 319.951 740.086C321.376 741.611 324.046 743.995 324.136 745.889L322.676 746.747C319.109 745.427 318.503 743.599 315.803 741.018C311.888 740.185 313.882 744.46 311.19 746.171C310.659 746.022 309.482 745.731 309.397 745.301C308.77 742.125 308.906 731.319 308.874 728.534Z"/><path fill="#EDEBE7" d="M544.829 728.582C548.657 728.717 555.777 727.855 558.576 730.563C563.477 735.304 557.26 737.295 555.817 740.015C556.636 742.803 558.907 743.036 559.617 745.283C558.346 746.01 558.394 745.718 556.644 745.591L555.968 745.505C552.177 743.032 554.725 740.988 549.492 740.298C547.514 741.463 549.86 743.355 548.343 745.634C546.725 746.08 546.839 746.118 545.275 745.538C544.77 744.617 544.87 730.925 544.829 728.582ZM555.783 736.241C555.772 733.891 556.12 734.46 554.97 732.857C553.079 731.874 551.061 732.059 548.865 731.989C548.892 734.738 548.435 734.881 549.678 736.791C551.402 737.665 554.042 736.897 555.783 736.241Z"/><path fill="#EDEBE7" d="M380.715 728.387C386.335 728.356 388.933 734.087 392.319 738.351L392.653 728.884L393.387 728.402C395.328 728.603 394.49 728.236 395.957 729.613C397.365 733.208 397.117 742.052 396.443 745.89L395.045 746.737C391.416 745.077 387.177 738.191 384.612 734.636C384.728 738.335 386.147 745.253 381.927 745.925L381.275 745.45C380.677 741.928 380.837 732.713 380.715 728.387Z"/><path fill="#EDEBE7" d="M338.699 728.6C343.488 728 344.499 728.174 348.309 730.709L348.175 731.851C344.951 731.975 330.992 731.551 337.481 741.232C338.522 742.784 343.053 743.694 344.896 741.64C345.113 736.8 343.217 740.63 340.982 738.038L341.192 735.726C343.956 735.61 345.932 735.841 348.655 736.102C348.745 737.502 349.11 742.366 348.677 743.316C346.312 748.301 337.288 746.31 334.335 743.007C328.836 736.857 332.39 731.685 338.699 728.6Z"/><path fill="#EDEBE7" d="M583.076 728.597C586.198 728.642 596.325 727.938 597.682 730.396C595.277 734.286 591.214 730.109 587.56 732.553C587.411 734.05 587.302 734.065 587.774 735.458C590.393 735.528 594.923 734.923 596.304 737.215L595.829 738.396C594.422 739.293 589.929 738.942 587.973 738.923L587.335 739.202C587.222 740.423 587.286 740.449 587.553 741.665C590.662 744.287 595.986 740.946 597.482 744.28L597.215 744.773C594.391 746.471 586.719 745.944 583.115 745.918C583.053 740.145 583.04 734.371 583.076 728.597Z"/><path fill="#EDEBE7" d="M358.788 728.575C361.528 728.581 369.044 728.658 371.76 728.997C372.287 729.062 372.237 729.858 372.361 730.577C370.792 734.324 366.409 730.074 362.994 732.588C362.347 734.324 362.358 733.494 362.762 735.151C365.031 736.4 367.859 734.61 370.757 735.9C371.542 737.605 371.538 736.802 371.085 738.37C369.366 739.28 365.579 738.943 363.434 738.917L362.653 739.177C362.413 741.341 362.084 740.553 362.947 742.03C366.253 743.43 370.315 741.389 372.438 743.724C372.302 745.225 372.635 744.684 371.815 745.63C368.51 746.247 362.095 746.022 358.514 746.008C358.472 742.393 358.218 731.532 358.788 728.575Z"/><path fill="#EDEBE7" d="M664.954 728.525C669.054 728.898 673.188 728.591 677.328 728.542C678.338 728.53 678.361 729.234 678.744 730.188C677.782 734.451 672.731 729.888 669.105 732.814L669.043 734.286C671.134 737.82 674.348 734.393 677.089 736.564L677.045 738.009C675.771 739.065 671.757 738.765 669.547 738.85C669 739.534 668.998 740.197 668.776 741.163C670.655 744.215 676.957 741.719 679.926 743.466C679.816 747.237 668.207 745.908 664.991 745.885C665.053 740.152 664.972 734.271 664.954 728.525Z"/><defs><linearGradient id="gradient_0" gradientUnits="userSpaceOnUse" x1="249.29654" y1="731.73541" x2="234.96371" y2="742.44373"><stop offset="0" stop-color="#302B2D"/><stop offset="1" stop-color="#383A32"/></linearGradient></defs><path fill="url(#gradient_0)" d="M235.902 728.501C238.816 728.5 246.426 728.315 248.934 728.788C250.005 730.364 249.838 729.551 249.736 731.233C247.475 732.716 243.524 730.932 240.306 732.569C239.51 734.125 239.687 733.288 240.022 735.206C242.181 736.2 244.328 735.085 247.557 735.907C248.429 737.222 248.253 736.532 248.235 738.006C246.542 739.229 243.017 738.839 240.758 738.801L240.07 738.956C239.29 745.303 244.422 741.285 248.666 743.32C248.895 744.69 248.973 744.06 248.299 745.224C245.336 746.295 239.057 745.907 235.68 745.876C235.968 740.089 236.042 734.294 235.902 728.501Z"/><path fill="#EDEBE7" d="M286.058 728.708C290.078 728.828 295.507 728.511 299.352 729.139C299.763 730.894 299.894 730.117 299.186 731.573C295.929 732.86 292.477 730.287 290.053 732.989C289.836 734.6 289.718 734.01 290.252 735.433L294.41 735.734C296.857 735.875 297.234 735.442 298.645 736.697L298.881 738.157C296.149 739.017 292.307 737.775 290.11 739.646L290.014 740.994C292.163 744.753 296.144 740.856 299.582 743.17C299.702 744.731 299.856 744.004 299.016 745.407C297.323 746.319 288.628 745.861 286.104 745.824C286.255 740.171 286.119 734.374 286.058 728.708Z"/><path fill="#010101" d="M294.41 735.734C296.857 735.875 297.234 735.442 298.645 736.697L298.881 738.157C297.145 737.967 294.218 738.003 293.095 737.044L293.25 736.417L294.41 735.734Z"/><path fill="#EDEBE7" d="M774.941 728.528C778.153 728.647 788.047 727.235 788.343 730.795C785.918 734.043 782.122 730.025 778.702 732.588C778.43 734.107 778.337 734.064 778.751 735.519C781.505 737.012 784.647 734.179 787.26 736.943L787.217 737.744C784.848 739.58 781.375 738.713 778.235 739.321C779.004 745.883 784.748 740.465 788.232 743.381C788.365 745.16 788.568 744.373 787.693 745.846C783.959 745.334 778.903 745.719 775.035 745.877C774.592 740.267 774.874 734.205 774.941 728.528Z"/><path fill="#EDEBE7" d="M519.922 728.48L523.265 728.736C524.597 732.225 522.25 738.12 524.717 742.24C525.576 742.793 525.63 743.05 526.508 743.07C534.72 743.263 529.434 731.931 532.776 728.283C534.476 728.263 533.651 728.064 535.225 729.237L535.41 732.875C535.449 733.755 535.478 734.636 535.497 735.517C535.665 743.662 529.744 751.161 521.845 744.065C518.614 741.163 519.612 732.902 519.922 728.48Z"/><path fill="#EDEBE7" d="M647.981 728.144C650.552 728.347 653.662 728.601 655.439 730.748C653.665 732.47 648.243 731.766 646.248 733.339C650.16 735.188 656.438 737.281 656.384 742.098C654.933 744.79 653.061 745.595 650.239 746.587C647.893 746.479 642.444 745.91 642.833 742.693C645.67 741.625 649.127 743.359 651.207 742.299C651.888 739.277 632.412 732.849 647.981 728.144Z"/><path fill="#EDEBE7" d="M757.549 728.116C760.028 727.995 766.282 728.156 765.045 732.084C761.778 733.625 750.222 728.884 754.633 739.672C755.192 741.065 756.37 742.118 757.817 742.519C760.067 743.135 762.016 741.985 764.067 741.057C765.867 742.404 766.491 742.525 765.451 744.587C763.558 745.813 761.514 746.103 759.29 746.641C755.205 745.694 752.559 744.792 750.631 740.722C749.622 738.593 749.553 736.139 750.44 733.957C751.898 730.395 754.287 729.481 757.549 728.116Z"/><path fill="#EDEBE7" d="M474.109 728.539C477.302 728.476 481.277 728.378 483.241 731.478C480.584 733.155 469.245 730.497 471.874 738.991C473.528 744.333 477.714 743.045 481.232 741.436C481.526 741.33 481.278 741.366 482.311 741.634L482.881 742.766C481.854 746.861 476.111 747.046 472.862 745.786C470.699 744.948 468.962 743.279 468.039 741.151C465.518 735.217 468.68 730.817 474.109 728.539Z"/><path fill="#EDEBE7" d="M414.893 728.121C417.492 728.32 421.639 728.444 422.277 731.335C419.426 734.441 412.018 729.622 410.59 733.546C407.558 741.88 413.093 743.762 419.407 741.495C420.971 741.821 420.354 741.445 421.372 742.578L421.267 743.499C418.548 746.952 413.663 746.925 410.037 744.931C408.054 743.844 406.602 741.993 406.017 739.809C405.345 737.206 405.81 734.441 407.295 732.2C409.228 729.223 411.635 728.708 414.893 728.121Z"/><path fill="#EDEBE7" d="M724.095 728.513C725.566 728.551 726.588 728.303 727.607 728.978C726.79 732.042 722.998 741.648 720.913 744.422C720.193 745.379 719.611 745.174 718.629 745.193C715.348 743.162 714.464 739.447 712.96 735.75C712.065 733.869 710.283 731.125 711.128 729.225C712.856 728.872 712.939 728.969 714.632 729.201C715.68 730.657 718.039 738.085 718.795 740.199C720.127 736.362 721.959 731.967 724.095 728.513Z"/><path fill="#EDEBE7" d="M438.562 736.061C440.772 731.551 440.76 730.693 444.964 728.099L445.911 728.357L446.104 729.123C445.728 731.539 444.014 733.667 442.63 735.793C440.191 739.616 440.648 742.403 438.612 746.391L437.825 746.616C436.533 743.39 436.707 743.238 436.623 739.812C434.18 735.984 431.661 732.205 429.067 728.477C435.774 728.261 435.544 730.812 438.562 736.061Z"/><path fill="#EDEBE7" d="M569.365 728.567C570.992 728.519 572.122 728.314 573.579 729.003L573.477 745.835C572.077 745.922 571.571 746.094 570.29 745.559C568.505 742.527 569.282 732.756 569.365 728.567Z"/><path fill="#EDEBE7" d="M736.951 728.43C738.63 728.418 739.092 728.325 740.711 728.897C741.257 732.854 740.955 741.638 740.791 745.801C739.331 745.651 738.653 745.521 737.251 745.225C736.59 743.375 736.928 731.406 736.951 728.43Z"/></svg>